<svg xmlns="http://www.w3.org/2000/svg"  viewBox="0 0 48 48" width="48px" height="48px"><path fill="#febf10" d="M5.33,34.872c0.074,0.94,0.188,2.677,0.331,3.608c0.144,0.934,0.314,1.894,0.821,2.688 c0.637,0.996,1.741,1.609,2.88,1.89s2.326,0.266,3.498,0.25c1.907-0.026,4.187-0.04,6.094,0.007 c7.12,0.177,14.942,0.501,21.639-1.953c0.552-0.202,1.112-0.432,1.537-0.842c0.511-0.493,0.773-1.193,0.941-1.887 c0.362-1.489,0.369-3.039,0.374-4.573c0.023-6.891,0.046-13.785-0.253-20.669c-0.102-2.352-0.326-4.911-1.918-6.628 c-1.053-1.136-2.578-1.728-4.102-1.944c-1.525-0.217-3.074-0.093-4.61-0.003c-5.257,0.309-11.135-0.219-16.401-0.251 C14.787,4.557,12.8,4.765,11.429,4.87c-1.92,0.148-4.063,0.408-5.281,1.918c-0.766,0.951-1.002,2.22-1.162,3.436 C3.953,18.116,4.705,26.935,5.33,34.872z"/><path fill="#373837" d="M23.325,23.4c-0.25-1.22-1.08-2.27-2.15-2.74s-2.52-0.33-3.45,0.39c-1.06,0.82-1.82,2.28-1.83,3.67 c0,1.39,0.71,2.79,1.85,3.43c0.23,0.13,0.47,0.23,0.71,0.3c0.84,0.28,1.76,0.34,2.6,0.07s1.6-0.89,1.99-1.74 c0.28-0.6,0.36-1.29,0.38-1.97C23.435,24.34,23.415,23.86,23.325,23.4z M20.575,26.19c-0.18,0.17-0.4,0.3-0.63,0.33 c-0.35,0.04-0.67-0.16-0.97-0.36c-0.14-0.09-0.27-0.18-0.41-0.27c-0.1-0.06-0.2-0.13-0.27-0.23c-0.1-0.14-0.13-0.32-0.15-0.5 c-0.06-0.51-0.08-1.06,0.1-1.54c0.23-0.6,0.84-1.14,1.44-1.09c0.71,0.06,1.32,0.83,1.49,1.57 C21.345,24.84,21.105,25.68,20.575,26.19z"/><path fill="#373837" d="M7.588,20.552c0.607,0.002,1.334,0.003,1.941,0.005c0.291,0.001,0.604,0.009,0.84,0.179 c0.165,0.12,0.27,0.303,0.37,0.482c0.319,0.57,0.638,1.141,0.956,1.711c0.321-0.669,0.642-1.338,0.963-2.007 c0.047-0.099,0.098-0.202,0.186-0.267c0.099-0.074,0.229-0.088,0.353-0.098c0.556-0.045,1.114-0.059,1.672-0.043 c0.358,0.011,0.579,0.397,0.423,0.719l-1.792,3.69c-0.084,0.174-0.17,0.351-0.197,0.541c-0.027,0.189,0.003,0.381,0.027,0.571 c0.09,0.711,0.082,1.298-0.023,1.96c-0.038,0.242-0.257,0.413-0.502,0.409c-0.505-0.008-1.01,0.006-1.514,0.042 c-0.275,0.019-0.513-0.184-0.536-0.459c-0.052-0.637-0.104-1.197-0.156-1.885c-0.014-0.185-0.028-0.373-0.087-0.549 c-0.07-0.21-0.198-0.395-0.325-0.577C9.231,23.615,8.542,21.917,7.588,20.552z"/><path fill="#373837" d="M25.576,20.652c0.419-0.024,0.876-0.052,1.294-0.076c0.271-0.015,0.506,0.192,0.528,0.463 c0.154,1.871,0.206,3.607,0.156,5.51l2.712,0.015c0.255,0.001,0.477,0.194,0.499,0.449c0.031,0.351,0.041,0.703,0.031,1.055 c-0.007,0.241-0.195,0.441-0.434,0.475c-1.448,0.209-2.906,0.396-4.366,0.333c-0.19-0.008-0.407-0.035-0.515-0.191 c-0.069-0.099-0.076-0.227-0.081-0.347c-0.098-2.404-0.197-4.763-0.296-7.161C25.093,20.906,25.305,20.668,25.576,20.652z"/><path fill="#010101" d="M4.83,34.872c0.15,1.928,0.123,4.09,0.888,5.898c0.856,2.024,2.976,2.837,5.031,3.002 c2.435,0.196,4.926-0.011,7.369,0.027c2.373,0.037,4.744,0.13,7.118,0.136c4.817,0.012,9.742-0.245,14.366-1.706 c0.985-0.311,2.119-0.62,2.884-1.354c0.747-0.717,1.037-1.795,1.21-2.782c0.446-2.536,0.258-5.204,0.262-7.768 c0.01-5.479-0.017-10.96-0.243-16.435c-0.086-2.079-0.174-4.272-1.154-6.157c-1.003-1.927-2.962-3.021-5.056-3.365 c-2.484-0.408-5.041,0.005-7.54,0.038c-2.573,0.035-5.145-0.067-7.715-0.167c-2.396-0.093-4.818-0.263-7.215-0.145 c-1.146,0.057-2.288,0.17-3.431,0.262c-0.958,0.077-1.924,0.155-2.86,0.385C6.672,5.253,5.255,6.573,4.752,8.67 c-0.558,2.324-0.633,4.835-0.721,7.215c-0.19,5.128,0.129,10.262,0.517,15.373C4.639,32.463,4.735,33.667,4.83,34.872 c0.05,0.637,1.051,0.643,1,0c-0.37-4.693-0.754-9.39-0.838-14.099c-0.042-2.394-0.008-4.791,0.16-7.18 c0.081-1.149,0.186-2.298,0.344-3.439c0.141-1.017,0.337-2.107,0.961-2.952c1.192-1.614,3.508-1.711,5.327-1.86 c2.107-0.172,4.178-0.298,6.293-0.246c4.714,0.115,9.435,0.484,14.151,0.239c2.324-0.121,4.829-0.432,7.012,0.586 c1.975,0.922,2.878,2.74,3.22,4.807c0.374,2.256,0.32,4.616,0.38,6.896c0.066,2.531,0.098,5.063,0.111,7.595 c0.013,2.532,0.008,5.065,0,7.597c-0.004,1.22,0.019,2.445-0.065,3.663c-0.074,1.07-0.188,2.329-0.77,3.262 c-0.595,0.953-1.876,1.242-2.883,1.556c-1.04,0.324-2.098,0.586-3.166,0.798c-2.278,0.452-4.596,0.669-6.914,0.769 c-4.49,0.194-8.978-0.088-13.468-0.079c-1.098,0.002-2.195,0.021-3.293,0.029c-1.183,0.009-2.396-0.013-3.519-0.428 c-0.958-0.354-1.788-0.998-2.212-1.944c-0.404-0.902-0.517-1.945-0.615-2.92c-0.088-0.882-0.147-1.766-0.216-2.65 C5.78,34.234,4.78,34.229,4.83,34.872z"/><path fill="#373837" d="M39.595,23.57c-0.29-0.88-0.86-1.63-1.46-2.33c-0.25-0.29-0.51-0.57-0.85-0.72 c-0.64-0.27-1.37-0.21-2.05-0.16c-0.98,0.07-1.97,0.44-2.5,1.29c-0.53,0.85-0.66,1.9-0.62,2.9c0.05,0.95,0.25,1.94,0.85,2.68 c0.5,0.63,1.25,1.02,2.01,1.25c0.49,0.15,0.99,0.24,1.49,0.21c1.14-0.06,2.22-0.75,2.81-1.75 C39.865,25.94,39.965,24.67,39.595,23.57z M37.635,24.87c-0.03,0.27-0.09,0.55-0.2,0.81c-0.22,0.5-0.67,0.88-1.2,1.03 c-0.53,0.14-1.11,0.03-1.56-0.29c-0.1-0.07-0.2-0.16-0.28-0.27c-0.23-0.29-0.29-0.68-0.33-1.05c-0.05-0.57-0.05-1.17,0.17-1.69 c0.23-0.53,0.78-0.87,1.34-0.99c0.63-0.13,1.35,0.07,1.71,0.6C37.645,23.55,37.705,24.23,37.635,24.87z"/></svg>